<svg xmlns="http://www.w3.org/2000/svg" viewBox="0 0 64 64">
  <!-- Корпус кассеты -->
  <rect x="3" y="5" width="58" height="54" rx="4" fill="#94a3b8"/>
  <rect x="5" y="7" width="54" height="50" rx="3" fill="#cbd5e1"/>

  <!-- Окно с плёнкой -->
  <rect x="9" y="11" width="46" height="30" rx="3" fill="#1e3a5f"/>

  <!-- Левая катушка -->
  <circle cx="23" cy="26" r="11" fill="#334d66"/>
  <line x1="23" y1="15" x2="23" y2="37" stroke="#1e3a5f" stroke-width="1.5"/>
  <line x1="12.5" y1="20.5" x2="33.5" y2="31.5" stroke="#1e3a5f" stroke-width="1.5"/>
  <line x1="12.5" y1="31.5" x2="33.5" y2="20.5" stroke="#1e3a5f" stroke-width="1.5"/>
  <circle cx="23" cy="26" r="5" fill="#1e3a5f"/>
  <circle cx="23" cy="26" r="2.5" fill="#60a5fa"/>

  <!-- Правая катушка -->
  <circle cx="41" cy="26" r="11" fill="#334d66"/>
  <line x1="41" y1="15" x2="41" y2="37" stroke="#1e3a5f" stroke-width="1.5"/>
  <line x1="30.5" y1="20.5" x2="51.5" y2="31.5" stroke="#1e3a5f" stroke-width="1.5"/>
  <line x1="30.5" y1="31.5" x2="51.5" y2="20.5" stroke="#1e3a5f" stroke-width="1.5"/>
  <circle cx="41" cy="26" r="5" fill="#1e3a5f"/>
  <circle cx="41" cy="26" r="2.5" fill="#60a5fa"/>

  <!-- Плёнка -->
  <path d="M 10 38 Q 23 44 32 44 Q 41 44 54 38" stroke="#60a5fa" stroke-width="1.4" fill="none"/>

  <!-- Нижняя панель -->
  <rect x="9" y="43" width="46" height="12" rx="2" fill="#f8fafc"/>
  <rect x="12" y="46" width="20" height="2" rx="1" fill="#94a3b8"/>
  <rect x="12" y="50" width="14" height="2" rx="1" fill="#cbd5e1"/>

  <!-- Переключатель защиты -->
  <rect x="56" y="22" width="5" height="8" rx="1.5" fill="#64748b"/>
  <rect x="57" y="24" width="3" height="3" rx="0.5" fill="#cbd5e1"/>
</svg>
